<svg width="253" height="301" viewBox="0 0 253 301" fill="none" xmlns="http://www.w3.org/2000/svg">
<path d="M163.378 116.944C164.178 116.544 162.478 116.344 160.778 116.544C157.078 117.044 152.278 111.444 148.978 109.944C135.378 103.644 117.078 102.944 102.678 106.544C90.3777 109.644 78.7777 111.344 66.8777 115.644C58.1777 118.844 49.1777 129.244 47.3777 139.044C41.5777 170.944 119.178 160.644 135.378 160.444C135.478 161.244 135.878 162.044 136.078 162.844C149.278 160.444 165.078 156.344 174.878 147.144C178.778 143.444 182.678 138.444 181.978 133.044C181.278 127.944 171.178 123.144 174.778 117.644C173.678 116.944 172.478 116.244 171.278 115.544C171.278 115.544 171.278 115.544 171.278 115.644C170.778 116.144 166.878 116.244 163.378 116.944Z" fill="#A76127"/>
<path d="M163.378 116.944C164.178 116.544 162.478 116.344 160.778 116.544C157.078 117.044 152.278 111.444 148.978 109.944C135.378 103.644 117.078 102.944 102.678 106.544C90.3777 109.644 78.7777 111.344 66.8777 115.644C58.1777 118.844 49.1777 129.244 47.3777 139.044C41.5777 170.944 119.178 160.644 135.378 160.444C135.478 161.244 135.878 162.044 136.078 162.844C149.278 160.444 165.078 156.344 174.878 147.144C178.778 143.444 182.678 138.444 181.978 133.044C181.278 127.944 171.178 123.144 174.778 117.644C173.678 116.944 172.478 116.244 171.278 115.544C171.278 115.544 171.278 115.544 171.278 115.644C170.778 116.144 166.878 116.244 163.378 116.944Z" stroke="#A76127" stroke-width="0.743"/>
<path d="M251.978 188.144C252.078 188.144 252.078 187.744 251.878 186.944C251.278 184.144 248.778 177.344 248.478 176.544C246.278 171.944 243.678 168.644 238.778 166.144C230.778 162.044 218.678 158.844 209.578 160.844C209.578 157.344 210.178 148.844 202.178 147.344C197.678 146.944 192.478 146.844 187.778 149.144C188.578 148.344 189.278 147.544 189.678 147.244C195.878 140.944 193.678 121.644 186.178 116.344C185.278 115.744 184.478 115.344 183.378 115.244C182.678 115.144 181.978 114.944 181.178 114.744C180.278 114.544 179.778 114.944 179.078 115.144C178.178 115.444 177.278 115.744 176.478 116.244C175.978 116.544 175.478 116.844 175.078 117.344C174.978 117.444 174.878 117.644 174.778 117.844C171.178 123.244 181.378 128.144 181.978 133.244C182.778 138.744 178.778 143.744 174.878 147.344C165.078 156.544 149.278 160.644 136.078 163.044C135.878 162.244 135.578 161.444 135.378 160.644C119.178 160.844 41.5776 171.144 47.3776 139.244C49.1776 129.344 58.2776 119.044 66.8776 115.844C78.6776 111.444 90.3776 109.844 102.678 106.744C117.078 103.044 135.378 103.844 148.978 110.144C152.278 111.644 157.078 117.244 160.778 116.744C162.478 116.544 164.278 116.744 163.378 117.144C166.978 116.544 170.778 116.344 171.078 115.944C171.078 115.944 171.078 115.944 171.078 115.844C171.778 114.844 172.278 113.944 172.678 113.044C178.678 99.9439 157.078 96.7439 150.478 96.8439C139.478 98.9439 124.778 94.4439 113.278 94.7439C96.5776 95.1439 78.4776 97.3439 62.5776 102.444C55.3776 104.744 50.9776 109.544 45.2776 113.444C39.3776 118.644 34.9776 125.944 32.4776 131.844C30.4776 136.744 32.7776 142.844 29.9776 147.444C29.9776 147.444 30.3776 147.244 30.4776 147.244C34.8776 155.744 31.6776 166.644 32.7776 175.844C33.2776 180.344 31.9776 184.144 31.8776 188.544C31.7776 195.844 36.2776 196.744 30.0776 201.144C26.6776 203.544 21.8776 204.144 18.2776 206.344C12.3776 210.044 7.47757 214.844 4.37757 220.844C-1.92243 232.944 -1.42243 246.944 5.87757 258.544C19.5776 280.444 51.7776 287.744 76.0776 294.344C91.7776 298.544 110.378 301.744 126.678 299.344C132.978 298.444 140.878 297.444 147.178 297.344C157.378 297.144 166.278 297.644 176.278 295.144C187.678 292.244 195.978 286.344 206.178 281.144C210.278 279.044 220.778 271.344 222.478 267.044C223.578 264.244 222.278 252.244 221.378 249.344C218.878 241.144 209.278 230.044 203.178 224.144C201.378 222.344 199.378 221.244 197.478 220.044C197.078 219.844 196.778 219.544 196.378 219.344C195.878 219.044 195.378 218.744 194.978 218.444C193.778 217.744 191.878 216.144 191.378 216.344C191.878 215.244 193.878 213.944 193.278 212.944L193.378 212.844C196.478 214.744 199.578 213.944 202.478 214.444C214.878 214.544 229.178 212.544 239.778 206.144C248.078 201.144 249.478 196.744 252.378 188.244C252.178 188.044 252.078 188.144 251.978 188.144ZM232.978 188.244C232.578 193.144 229.178 197.744 223.978 201.044C219.678 203.744 214.478 205.244 209.378 205.544C190.078 206.544 213.378 176.344 207.978 173.344L208.178 173.444C216.678 178.244 234.078 173.744 232.978 188.244Z" fill="white"/>
<path d="M184.378 152.344C180.278 164.644 188.278 172.144 185.578 182.244C185.478 183.044 185.078 191.644 182.778 199.444C181.578 203.044 179.778 206.444 177.978 208.944C177.578 209.044 176.978 209.144 175.578 209.444L174.978 210.044C174.278 210.744 173.878 211.244 173.878 211.244C166.978 219.544 153.778 227.844 143.278 228.044C135.778 230.644 131.478 227.244 123.478 230.444C119.278 229.544 111.078 229.344 105.678 228.244L102.578 227.644L100.578 227.244C94.6777 224.444 86.4777 223.644 81.2777 219.744C73.2777 216.244 68.9777 215.344 65.8777 208.444L65.3777 207.444L64.8777 206.544C61.6777 199.044 56.3777 194.844 56.8777 187.944L56.7777 187.244C55.8777 182.544 55.6777 171.644 54.6777 170.444C60.9777 171.944 68.8777 174.344 76.2777 174.444L80.9777 175.044L77.1777 174.544C86.4777 175.244 95.7777 177.044 105.378 177.844C115.178 179.744 124.678 174.844 133.778 176.144C133.678 175.444 135.178 174.844 136.778 174.344C136.778 174.244 136.778 174.144 136.778 174.144H137.378C137.478 174.144 137.478 174.144 137.578 174.044C139.878 174.044 145.478 173.844 147.178 173.544C149.078 172.244 151.178 171.744 153.378 171.244C155.178 170.744 156.878 170.044 158.678 169.544C163.078 168.444 167.378 167.044 171.278 164.644C174.678 162.544 178.378 159.944 179.578 156.344C181.178 155.144 182.878 153.744 184.378 152.344Z" fill="#A5B3D1"/>
<path d="M184.378 152.344C180.278 164.644 188.278 172.144 185.578 182.244C185.478 183.044 185.078 191.644 182.778 199.444C181.578 203.044 179.778 206.444 177.978 208.944C177.578 209.044 176.978 209.144 175.578 209.444L174.978 210.044C174.278 210.744 173.878 211.244 173.878 211.244C166.978 219.544 153.778 227.844 143.278 228.044C135.778 230.644 131.478 227.244 123.478 230.444C119.278 229.544 111.078 229.344 105.678 228.244L102.578 227.644L100.578 227.244C94.6777 224.444 86.4777 223.644 81.2777 219.744C73.2777 216.244 68.9777 215.344 65.8777 208.444L65.3777 207.444L64.8777 206.544C61.6777 199.044 56.3777 194.844 56.8777 187.944L56.7777 187.244C55.8777 182.544 55.6777 171.644 54.6777 170.444C60.9777 171.944 68.8777 174.344 76.2777 174.444L80.9777 175.044L77.1777 174.544C86.4777 175.244 95.7777 177.044 105.378 177.844C115.178 179.744 124.678 174.844 133.778 176.144C133.678 175.444 135.178 174.844 136.778 174.344C136.778 174.244 136.778 174.144 136.778 174.144H137.378C137.478 174.144 137.478 174.144 137.578 174.044C139.878 174.044 145.478 173.844 147.178 173.544C149.078 172.244 151.178 171.744 153.378 171.244C155.178 170.744 156.878 170.044 158.678 169.544C163.078 168.444 167.378 167.044 171.278 164.644C174.678 162.544 178.378 159.944 179.578 156.344C181.178 155.144 182.878 153.744 184.378 152.344Z" stroke="#A5B3D1" stroke-width="0.743"/>
<path d="M192.278 234.444C197.378 245.544 196.278 265.344 190.178 269.944C183.178 275.244 172.978 277.244 164.678 279.744L163.678 279.944L163.078 280.144C153.078 283.844 140.078 287.344 129.278 286.044C129.478 286.044 129.578 286.044 129.678 286.144C124.178 283.544 110.378 284.844 104.178 285.044C97.5777 285.244 90.6777 285.944 84.0777 284.544C77.9777 283.244 72.9777 279.444 66.8777 278.144C59.5777 276.644 51.8777 276.244 45.6777 271.944C39.5777 267.744 31.5777 263.744 27.7777 257.844C24.3777 252.544 21.1777 239.944 21.2777 233.744C21.2777 232.544 21.4777 232.044 21.8777 230.944C22.1777 230.344 21.8777 229.744 21.8777 229.044C21.9777 227.144 22.9777 225.944 24.1777 224.544C26.6777 221.644 30.4777 220.044 33.9777 218.544C36.0777 217.744 41.6777 216.544 40.8777 216.044C43.5777 218.344 45.3777 222.044 47.5777 225.244C54.2777 235.044 70.2777 239.344 81.2777 243.144C87.2777 250.744 100.778 251.844 109.978 252.044C114.878 252.144 119.878 252.044 124.678 251.044C128.278 250.344 134.978 245.744 137.178 245.644C145.678 245.144 149.678 246.244 157.378 242.544C166.578 238.144 171.578 234.944 178.578 228.244C179.278 227.644 180.178 227.244 181.078 227.044C186.278 226.244 189.978 229.444 192.278 234.444Z" fill="#A5B3D1"/>
<path d="M192.278 234.444C197.378 245.544 196.278 265.344 190.178 269.944C183.178 275.244 172.978 277.244 164.678 279.744L163.678 279.944L163.078 280.144C153.078 283.844 140.078 287.344 129.278 286.044C129.478 286.044 129.578 286.044 129.678 286.144C124.178 283.544 110.378 284.844 104.178 285.044C97.5777 285.244 90.6777 285.944 84.0777 284.544C77.9777 283.244 72.9777 279.444 66.8777 278.144C59.5777 276.644 51.8777 276.244 45.6777 271.944C39.5777 267.744 31.5777 263.744 27.7777 257.844C24.3777 252.544 21.1777 239.944 21.2777 233.744C21.2777 232.544 21.4777 232.044 21.8777 230.944C22.1777 230.344 21.8777 229.744 21.8777 229.044C21.9777 227.144 22.9777 225.944 24.1777 224.544C26.6777 221.644 30.4777 220.044 33.9777 218.544C36.0777 217.744 41.6777 216.544 40.8777 216.044C43.5777 218.344 45.3777 222.044 47.5777 225.244C54.2777 235.044 70.2777 239.344 81.2777 243.144C87.2777 250.744 100.778 251.844 109.978 252.044C114.878 252.144 119.878 252.044 124.678 251.044C128.278 250.344 134.978 245.744 137.178 245.644C145.678 245.144 149.678 246.244 157.378 242.544C166.578 238.144 171.578 234.944 178.578 228.244C179.278 227.644 180.178 227.244 181.078 227.044C186.278 226.244 189.978 229.444 192.278 234.444Z" stroke="#A5B3D1" stroke-width="0.743"/>
<path d="M143.878 90.2438C142.278 89.6438 140.078 89.2438 137.778 88.7438C135.078 88.1438 129.378 87.0438 128.578 85.9438L128.178 84.6438L126.378 84.1438H126.578C125.978 84.0438 123.578 83.1438 121.478 82.4438C107.078 77.2438 99.6775 75.2438 96.7775 78.4438C96.3775 78.9438 95.9775 79.6438 95.8775 80.5438C95.6775 80.5438 95.0775 80.5438 94.6775 80.5438C94.7775 80.1438 94.8775 79.7438 94.8775 79.2438C94.8775 79.1438 94.8775 79.1438 94.8775 79.0438C94.8775 75.8438 90.0775 72.9438 87.0775 71.5438C82.7775 69.4438 77.6775 67.4438 71.2775 65.3438C64.0775 62.9438 56.5775 57.3438 55.1775 53.3438L54.9775 52.7438C53.5775 48.3438 51.8775 43.3438 51.8775 39.0438V38.6438C52.0775 37.8438 53.8775 35.2438 55.1775 33.5438C57.8775 29.7438 60.4775 26.1438 60.4775 23.2438C60.4775 22.8438 60.4775 22.4438 60.3775 22.1438C60.0775 20.9438 59.2775 20.0438 58.0775 19.4438C52.9775 17.0438 42.8775 23.2438 41.5775 24.2438C35.9775 28.4438 36.8775 34.1438 37.5775 38.6438L37.9775 41.4438L38.0775 42.9438C38.5775 49.2438 39.1775 55.8438 43.7775 61.8438C47.4775 66.6438 53.7775 71.3438 61.6775 74.8438C65.3775 76.5438 69.4775 77.3438 73.4775 78.0438C76.7775 78.6438 79.8775 79.2438 82.6775 80.3438L83.8775 80.9438L84.0775 81.0438C86.8775 82.5438 90.2775 84.3438 92.7775 82.9438C92.9775 82.8438 93.1775 82.6438 93.3775 82.5438C92.8775 84.3438 93.7775 86.5438 95.6775 88.2438C97.3775 89.7438 99.3775 90.3438 101.478 90.1438C102.578 93.1438 105.378 93.4438 108.678 93.7438L111.578 94.0438L115.278 94.6438C118.278 95.2438 121.078 96.0438 123.978 97.0438L125.478 97.4438L127.378 98.0438C130.578 99.0438 133.878 100.044 136.478 101.444C145.178 106.044 148.478 109.344 148.478 114.244C148.478 115.044 148.378 115.844 148.178 116.844C146.978 123.244 140.178 129.744 130.478 133.744C129.178 134.244 127.678 134.744 126.078 135.244C128.178 133.444 128.778 131.444 128.778 129.944C128.778 129.644 128.778 129.444 128.678 129.144C128.278 125.544 124.778 122.144 119.878 120.644C112.778 118.444 100.678 119.744 94.2775 121.144C81.6775 123.944 73.4775 130.244 73.4775 137.244C73.4775 140.844 75.7775 147.344 90.8775 150.744C110.978 155.244 135.478 144.544 148.578 138.744L150.078 138.044C165.078 131.444 166.678 116.244 163.178 104.144C161.678 97.6438 152.978 93.6438 143.878 90.2438ZM107.378 137.444L101.978 137.944C95.1775 138.544 91.3775 137.444 90.6775 136.744C91.0775 136.344 92.2775 135.844 92.9775 135.544C94.6775 134.744 96.4775 133.944 97.0775 132.244C98.9775 132.044 100.978 132.044 103.078 132.044L109.278 131.844L113.778 131.144C116.078 130.644 118.478 130.244 120.478 130.444C121.478 130.544 121.878 130.844 121.978 130.944C121.978 131.044 122.078 131.144 122.078 131.244C122.078 131.844 121.778 133.144 121.578 133.644C121.578 133.644 121.178 135.044 120.778 136.344C118.978 136.644 117.078 136.944 115.078 136.944C114.878 136.844 107.378 137.444 107.378 137.444Z" fill="white"/>
<path d="M187.778 30.1439C181.778 18.7439 164.078 12.8439 150.278 9.84389C148.278 9.44389 147.178 8.54389 145.878 7.34389C144.978 6.54389 143.878 5.64389 142.378 4.84389C139.178 3.24389 135.178 2.54388 131.378 1.94388L128.778 1.44388C115.178 -1.05612 101.278 0.14388 89.3777 1.64388L85.5777 2.14388C76.7777 3.14388 65.8777 4.44389 59.9777 8.74389C58.4777 9.84389 56.7777 11.3439 56.6777 13.4439C56.6777 15.5439 58.1777 16.7439 59.5777 17.9439C60.3777 18.6439 61.2777 19.3439 61.9777 20.2439L63.5777 22.4439L65.3777 20.3439C70.2777 14.7439 78.1777 14.7439 86.6777 14.7439C90.6777 14.7439 94.8777 14.7439 98.8777 14.1439C106.878 12.9439 113.678 12.4439 120.678 13.5439L127.978 14.4439C136.978 15.5439 149.378 16.9439 152.878 21.0439C154.378 22.7439 156.978 24.1439 159.678 25.4439C161.878 26.5439 164.178 27.7439 165.378 28.9439L166.678 30.7439C167.878 32.7439 169.678 35.4439 172.778 35.9439L174.578 36.0439C175.078 36.0439 175.178 36.0439 175.678 36.2439C176.778 36.7439 178.078 37.5439 178.178 38.6439V38.7439C178.178 40.5439 175.278 44.3439 167.078 49.5439C163.178 51.9439 159.878 53.6439 154.178 54.8439L150.878 55.4439C145.678 56.4439 139.878 57.5439 136.578 60.6439C130.678 59.1439 124.278 58.9439 117.978 58.7439C106.978 58.4439 96.5777 58.1439 91.4777 50.9439C90.0777 48.9439 89.2777 46.4439 89.2777 43.9439C89.2777 43.2439 89.3777 42.5439 89.4777 41.8439C89.9777 39.3439 91.2777 37.4439 93.3777 36.1439C98.6777 32.7439 106.378 33.8439 113.778 34.8439C117.678 35.3439 121.678 35.9439 125.378 35.8439C128.178 35.7439 133.478 35.6439 133.678 32.1439C134.078 26.4439 116.878 22.6439 116.678 22.6439C100.178 19.8439 83.9777 25.6439 77.1777 36.7439C73.2777 43.1439 73.1777 49.5439 76.9777 55.2439C86.5777 69.5439 118.778 75.6439 141.778 72.1439C161.678 69.0439 185.078 58.8439 189.078 43.4439C189.578 41.7439 189.778 40.1439 189.778 38.5439C189.878 35.5439 189.178 32.7439 187.778 30.1439Z" fill="white"/>
</svg>
