<svg width="254" height="301" viewBox="0 0 254 301" fill="none" xmlns="http://www.w3.org/2000/svg">
<path d="M164.3 117.2C165.1 116.8 163.4 116.6 161.7 116.8C158 117.3 153.2 111.7 149.9 110.2C136.3 103.9 118 103.2 103.6 106.8C91.3 109.9 79.7 111.6 67.8 115.9C59.1 119.1 50.1 129.5 48.3 139.3C42.5 171.2 120.1 160.9 136.3 160.7C136.4 161.5 136.8 162.3 137 163.1C150.2 160.7 166 156.6 175.8 147.4C179.7 143.7 183.6 138.7 182.9 133.3C182.2 128.2 172.1 123.4 175.7 117.9C174.6 117.2 173.4 116.5 172.2 115.8C172.2 115.8 172.2 115.8 172.2 115.9C171.7 116.4 167.8 116.5 164.3 117.2Z" fill="#A76127"/>
<path d="M164.3 117.2C165.1 116.8 163.4 116.6 161.7 116.8C158 117.3 153.2 111.7 149.9 110.2C136.3 103.9 118 103.2 103.6 106.8C91.3 109.9 79.7 111.6 67.8 115.9C59.1 119.1 50.1 129.5 48.3 139.3C42.5 171.2 120.1 160.9 136.3 160.7C136.4 161.5 136.8 162.3 137 163.1C150.2 160.7 166 156.6 175.8 147.4C179.7 143.7 183.6 138.7 182.9 133.3C182.2 128.2 172.1 123.4 175.7 117.9C174.6 117.2 173.4 116.5 172.2 115.8C172.2 115.8 172.2 115.8 172.2 115.9C171.7 116.4 167.8 116.5 164.3 117.2Z" stroke="#A76127" stroke-width="0.743"/>
<path d="M252.9 188.4C253 188.4 253 188 252.8 187.2C252.2 184.4 249.7 177.6 249.4 176.8C247.2 172.2 244.6 168.9 239.7 166.4C231.7 162.3 219.6 159.1 210.5 161.1C210.5 157.6 211.1 149.1 203.1 147.6C198.6 147.2 193.4 147.1 188.7 149.4C189.5 148.6 190.2 147.8 190.6 147.5C196.8 141.2 194.6 121.9 187.1 116.6C186.2 116 185.4 115.6 184.3 115.5C183.6 115.4 182.9 115.2 182.1 115C181.2 114.8 180.7 115.2 180 115.4C179.1 115.7 178.2 116 177.4 116.5C176.9 116.8 176.4 117.1 176 117.6C175.9 117.7 175.8 117.9 175.7 118.1C172.1 123.5 182.3 128.4 182.9 133.5C183.7 139 179.7 144 175.8 147.6C166 156.8 150.2 160.9 137 163.3C136.8 162.5 136.5 161.7 136.3 160.9C120.1 161.1 42.4999 171.4 48.2999 139.5C50.0999 129.6 59.1999 119.3 67.7999 116.1C79.5999 111.7 91.2999 110.1 103.6 107C118 103.3 136.3 104.1 149.9 110.4C153.2 111.9 158 117.5 161.7 117C163.4 116.8 165.2 117 164.3 117.4C167.9 116.8 171.7 116.6 172 116.2C172 116.2 172 116.2 172 116.1C172.7 115.1 173.2 114.2 173.6 113.3C179.6 100.2 158 97 151.4 97.1C140.4 99.2 125.7 94.7 114.2 95C97.4999 95.4 79.3999 97.6 63.4999 102.7C56.2999 105 51.8999 109.8 46.1999 113.7C40.2999 118.9 35.8999 126.2 33.3999 132.1C31.3999 137 33.6999 143.1 30.8999 147.7C30.8999 147.7 31.2999 147.5 31.3999 147.5C35.7999 156 32.5999 166.9 33.6999 176.1C34.1999 180.6 32.8999 184.4 32.7999 188.8C32.6999 196.1 37.1999 197 30.9999 201.4C27.5999 203.8 22.7999 204.4 19.1999 206.6C13.2999 210.3 8.39994 215.1 5.29994 221.1C-1.00006 233.2 -0.500063 247.2 6.79994 258.8C20.4999 280.7 52.6999 288 76.9999 294.6C92.6999 298.8 111.3 302 127.6 299.6C133.9 298.7 141.8 297.7 148.1 297.6C158.3 297.4 167.2 297.9 177.2 295.4C188.6 292.5 196.9 286.6 207.1 281.4C211.2 279.3 221.7 271.6 223.4 267.3C224.5 264.5 223.2 252.5 222.3 249.6C219.8 241.4 210.2 230.3 204.1 224.4C202.3 222.6 200.3 221.5 198.4 220.3C198 220.1 197.7 219.8 197.3 219.6C196.8 219.3 196.3 219 195.9 218.7C194.7 218 192.8 216.4 192.3 216.6C192.8 215.5 194.8 214.2 194.2 213.2L194.3 213.1C197.4 215 200.5 214.2 203.4 214.7C215.8 214.8 230.1 212.8 240.7 206.4C249 201.4 250.4 197 253.3 188.5C253.1 188.3 253 188.4 252.9 188.4ZM233.9 188.5C233.5 193.4 230.1 198 224.9 201.3C220.6 204 215.4 205.5 210.3 205.8C191 206.8 214.3 176.6 208.9 173.6L209.1 173.7C217.6 178.5 235 174 233.9 188.5Z" fill="#231F20"/>
<path d="M185.3 152.6C181.2 164.9 189.2 172.4 186.5 182.5C186.4 183.3 186 191.9 183.7 199.7C182.5 203.3 180.7 206.7 178.9 209.2C178.5 209.3 177.9 209.4 176.5 209.7L175.9 210.3C175.2 211 174.8 211.5 174.8 211.5C167.9 219.8 154.7 228.1 144.2 228.3C136.7 230.9 132.4 227.5 124.4 230.7C120.2 229.8 112 229.6 106.6 228.5L103.5 227.9L101.5 227.5C95.6001 224.7 87.4001 223.9 82.2001 220C74.2001 216.5 69.9001 215.6 66.8001 208.7L66.3001 207.7L65.8001 206.8C62.6001 199.3 57.3001 195.1 57.8001 188.2L57.7001 187.5C56.8001 182.8 56.6001 171.9 55.6001 170.7C61.9001 172.2 69.8001 174.6 77.2001 174.7L81.9001 175.3L78.1001 174.8C87.4001 175.5 96.7001 177.3 106.3 178.1C116.1 180 125.6 175.1 134.7 176.4C134.6 175.7 136.1 175.1 137.7 174.6C137.7 174.5 137.7 174.4 137.7 174.4H138.3C138.4 174.4 138.4 174.4 138.5 174.3C140.8 174.3 146.4 174.1 148.1 173.8C150 172.5 152.1 172 154.3 171.5C156.1 171 157.8 170.3 159.6 169.8C164 168.7 168.3 167.3 172.2 164.9C175.6 162.8 179.3 160.2 180.5 156.6C182.1 155.4 183.8 154 185.3 152.6Z" fill="#A5B3D1"/>
<path d="M185.3 152.6C181.2 164.9 189.2 172.4 186.5 182.5C186.4 183.3 186 191.9 183.7 199.7C182.5 203.3 180.7 206.7 178.9 209.2C178.5 209.3 177.9 209.4 176.5 209.7L175.9 210.3C175.2 211 174.8 211.5 174.8 211.5C167.9 219.8 154.7 228.1 144.2 228.3C136.7 230.9 132.4 227.5 124.4 230.7C120.2 229.8 112 229.6 106.6 228.5L103.5 227.9L101.5 227.5C95.6001 224.7 87.4001 223.9 82.2001 220C74.2001 216.5 69.9001 215.6 66.8001 208.7L66.3001 207.7L65.8001 206.8C62.6001 199.3 57.3001 195.1 57.8001 188.2L57.7001 187.5C56.8001 182.8 56.6001 171.9 55.6001 170.7C61.9001 172.2 69.8001 174.6 77.2001 174.7L81.9001 175.3L78.1001 174.8C87.4001 175.5 96.7001 177.3 106.3 178.1C116.1 180 125.6 175.1 134.7 176.4C134.6 175.7 136.1 175.1 137.7 174.6C137.7 174.5 137.7 174.4 137.7 174.4H138.3C138.4 174.4 138.4 174.4 138.5 174.3C140.8 174.3 146.4 174.1 148.1 173.8C150 172.5 152.1 172 154.3 171.5C156.1 171 157.8 170.3 159.6 169.8C164 168.7 168.3 167.3 172.2 164.9C175.6 162.8 179.3 160.2 180.5 156.6C182.1 155.4 183.8 154 185.3 152.6Z" stroke="#A5B3D1" stroke-width="0.743"/>
<path d="M193.2 234.7C198.3 245.8 197.2 265.6 191.1 270.2C184.1 275.5 173.9 277.5 165.6 280L164.6 280.2L164 280.4C154 284.1 141 287.6 130.2 286.3C130.4 286.3 130.5 286.3 130.6 286.4C125.1 283.8 111.3 285.1 105.1 285.3C98.5 285.5 91.6 286.2 85 284.8C78.9 283.5 73.9 279.7 67.8 278.4C60.5 276.9 52.8 276.5 46.6 272.2C40.5 268 32.5 264 28.7 258.1C25.3 252.8 22.1 240.2 22.2 234C22.2 232.8 22.4 232.3 22.8 231.2C23.1 230.6 22.8 230 22.8 229.3C22.9 227.4 23.9 226.2 25.1 224.8C27.6 221.9 31.4 220.3 34.9 218.8C37 218 42.6 216.8 41.8 216.3C44.5 218.6 46.3 222.3 48.5 225.5C55.2 235.3 71.2 239.6 82.2 243.4C88.2 251 101.7 252.1 110.9 252.3C115.8 252.4 120.8 252.3 125.6 251.3C129.2 250.6 135.9 246 138.1 245.9C146.6 245.4 150.6 246.5 158.3 242.8C167.5 238.4 172.5 235.2 179.5 228.5C180.2 227.9 181.1 227.5 182 227.3C187.2 226.5 190.9 229.7 193.2 234.7Z" fill="#A5B3D1"/>
<path d="M193.2 234.7C198.3 245.8 197.2 265.6 191.1 270.2C184.1 275.5 173.9 277.5 165.6 280L164.6 280.2L164 280.4C154 284.1 141 287.6 130.2 286.3C130.4 286.3 130.5 286.3 130.6 286.4C125.1 283.8 111.3 285.1 105.1 285.3C98.5 285.5 91.6 286.2 85 284.8C78.9 283.5 73.9 279.7 67.8 278.4C60.5 276.9 52.8 276.5 46.6 272.2C40.5 268 32.5 264 28.7 258.1C25.3 252.8 22.1 240.2 22.2 234C22.2 232.8 22.4 232.3 22.8 231.2C23.1 230.6 22.8 230 22.8 229.3C22.9 227.4 23.9 226.2 25.1 224.8C27.6 221.9 31.4 220.3 34.9 218.8C37 218 42.6 216.8 41.8 216.3C44.5 218.6 46.3 222.3 48.5 225.5C55.2 235.3 71.2 239.6 82.2 243.4C88.2 251 101.7 252.1 110.9 252.3C115.8 252.4 120.8 252.3 125.6 251.3C129.2 250.6 135.9 246 138.1 245.9C146.6 245.4 150.6 246.5 158.3 242.8C167.5 238.4 172.5 235.2 179.5 228.5C180.2 227.9 181.1 227.5 182 227.3C187.2 226.5 190.9 229.7 193.2 234.7Z" stroke="#A5B3D1" stroke-width="0.743"/>
<path d="M144.8 90.4999C143.2 89.8999 141 89.4999 138.7 88.9999C136 88.3999 130.3 87.2999 129.5 86.1999L129.1 84.8999L127.3 84.3999H127.5C126.9 84.2999 124.5 83.3999 122.4 82.6999C108 77.4999 100.6 75.4999 97.7 78.6999C97.3 79.1999 96.9 79.8999 96.8 80.7999C96.6 80.7999 96 80.7999 95.6 80.7999C95.7 80.3999 95.8 79.9999 95.8 79.4999C95.8 79.3999 95.8 79.3999 95.8 79.2999C95.8 76.0999 91 73.1999 88 71.7999C83.7 69.6999 78.6 67.6999 72.2 65.5999C65 63.1999 57.5 57.5999 56.1 53.5999L55.9 52.9999C54.5 48.5999 52.8 43.5999 52.8 39.2999V38.8999C53 38.0999 54.8 35.4999 56.1 33.7999C58.8 29.9999 61.4 26.3999 61.4 23.4999C61.4 23.0999 61.4 22.6999 61.3 22.3999C61 21.1999 60.2 20.2999 59 19.6999C53.9 17.2999 43.8 23.4999 42.5 24.4999C36.9 28.6999 37.8 34.3999 38.5 38.8999L38.9 41.6999L39 43.1999C39.5 49.4999 40.1 56.0999 44.7 62.0999C48.4 66.8999 54.7 71.5999 62.6 75.0999C66.3 76.7999 70.4 77.5999 74.4 78.2999C77.7 78.8999 80.8 79.4999 83.6 80.5999L84.8 81.1999L85 81.2999C87.8 82.7999 91.2 84.5999 93.7 83.1999C93.9 83.0999 94.1 82.8999 94.3 82.7999C93.8 84.5999 94.7 86.7999 96.6 88.4999C98.3 89.9999 100.3 90.5999 102.4 90.3999C103.5 93.3999 106.3 93.6999 109.6 93.9999L112.5 94.2999L116.2 94.8999C119.2 95.4999 122 96.2999 124.9 97.2999L126.4 97.6999L128.3 98.2999C131.5 99.2999 134.8 100.3 137.4 101.7C146.1 106.3 149.4 109.6 149.4 114.5C149.4 115.3 149.3 116.1 149.1 117.1C147.9 123.5 141.1 130 131.4 134C130.1 134.5 128.6 135 127 135.5C129.1 133.7 129.7 131.7 129.7 130.2C129.7 129.9 129.7 129.7 129.6 129.4C129.2 125.8 125.7 122.4 120.8 120.9C113.7 118.7 101.6 120 95.2 121.4C82.6 124.2 74.4 130.5 74.4 137.5C74.4 141.1 76.7 147.6 91.8 151C111.9 155.5 136.4 144.8 149.5 139L151 138.3C166 131.7 167.6 116.5 164.1 104.4C162.6 97.8999 153.9 93.8999 144.8 90.4999ZM108.3 137.7L102.9 138.2C96.1 138.8 92.3 137.7 91.6 137C92 136.6 93.2 136.1 93.9 135.8C95.6 135 97.4 134.2 98 132.5C99.9 132.3 101.9 132.3 104 132.3L110.2 132.1L114.7 131.4C117 130.9 119.4 130.5 121.4 130.7C122.4 130.8 122.8 131.1 122.9 131.2C122.9 131.3 123 131.4 123 131.5C123 132.1 122.7 133.4 122.5 133.9C122.5 133.9 122.1 135.3 121.7 136.6C119.9 136.9 118 137.2 116 137.2C115.8 137.1 108.3 137.7 108.3 137.7Z" fill="#231F20"/>
<path d="M188.7 30.4C182.7 19 165 13.1 151.2 10.1C149.2 9.7 148.1 8.8 146.8 7.6C145.9 6.8 144.8 5.9 143.3 5.1C140.1 3.5 136.1 2.79999 132.3 2.19999L129.7 1.69999C116.1 -0.800014 102.2 0.399983 90.3001 1.89998L86.5001 2.39998C77.7001 3.39998 66.8001 4.69999 60.9001 8.99999C59.4001 10.1 57.7001 11.6 57.6001 13.7C57.6001 15.8 59.1001 17 60.5001 18.2C61.3001 18.9 62.2001 19.6 62.9001 20.5L64.5001 22.7L66.3001 20.6C71.2001 15 79.1001 15 87.6001 15C91.6001 15 95.8001 15 99.8001 14.4C107.8 13.2 114.6 12.7 121.6 13.8L128.9 14.7C137.9 15.8 150.3 17.2 153.8 21.3C155.3 23 157.9 24.4 160.6 25.7C162.8 26.8 165.1 28 166.3 29.2L167.6 31C168.8 33 170.6 35.7 173.7 36.2L175.5 36.3C176 36.3 176.1 36.3 176.6 36.5C177.7 37 179 37.8 179.1 38.9V39C179.1 40.8 176.2 44.6 168 49.8C164.1 52.2 160.8 53.9 155.1 55.1L151.8 55.7C146.6 56.7 140.8 57.8 137.5 60.9C131.6 59.4 125.2 59.2 118.9 59C107.9 58.7 97.5001 58.4 92.4001 51.2C91.0001 49.2 90.2001 46.7 90.2001 44.2C90.2001 43.5 90.3001 42.8 90.4001 42.1C90.9001 39.6 92.2001 37.7 94.3001 36.4C99.6001 33 107.3 34.1 114.7 35.1C118.6 35.6 122.6 36.2 126.3 36.1C129.1 36 134.4 35.9 134.6 32.4C135 26.7 117.8 22.9 117.6 22.9C101.1 20.1 84.9001 25.9 78.1001 37C74.2001 43.4 74.1001 49.8 77.9001 55.5C87.5001 69.8 119.7 75.9 142.7 72.4C162.6 69.3 186 59.1 190 43.7C190.5 42 190.7 40.4 190.7 38.8C190.8 35.8 190.1 33 188.7 30.4Z" fill="#231F20"/>
</svg>
